<svg xmlns="http://www.w3.org/2000/svg" width="141mm" height="141mm" viewBox="0 0 141 141"><g transform="matrix(2.25604 0 0 2.25604 772.801 -53.221)"><circle style="opacity:1;fill:#fff;fill-opacity:1;stroke:#fff;stroke-width:.49264741;stroke-linecap:round;stroke-linejoin:miter;stroke-miterlimit:4;stroke-dasharray:none;stroke-dashoffset:0;stroke-opacity:1;paint-order:stroke fill markers" cx="-311.298" cy="54.84" r="31.003"/><path style="fill:#68bc48;stroke-width:.22111174" d="M-325.418 67.905c-.58-.58-.264-1.283 1.337-2.978 3.723-3.94 8.352-5.821 13.636-5.54 4.63.245 8.108 1.784 11.786 5.217l1.058.987 1.003-.978c1.816-1.77 1.793-1.918-.637-3.977-4.324-3.667-9.695-5.525-15.079-5.216-5.677.326-10.444 2.517-14.514 6.67-1.011 1.031-2.006 1.876-2.21 1.876-.204 0-1.472-1.055-2.817-2.346-1.785-1.713-2.447-2.491-2.447-2.879 0-.712 2.846-3.683 5.302-5.534 3.63-2.735 8.52-4.805 13.046-5.523 2.757-.437 8.266-.322 10.712.225 5.398 1.205 10.278 3.754 13.996 7.311.96.917 1.885 1.667 2.058 1.667.173 0 .789-.564 1.368-1.254l1.053-1.254-1.282-1.308c-3.142-3.207-8.124-6.26-12.701-7.785-4.029-1.342-5.519-1.562-10.57-1.562-3.935 0-4.83.067-6.823.514-6.378 1.43-11.612 4.243-16.351 8.79-2.4 2.302-3.014 2.643-3.562 1.982-.504-.608-.022-1.366 2.281-3.587 4.69-4.523 10.413-7.62 16.72-9.046 9.49-2.148 19.371-.273 27.635 5.245 2.547 1.7 7.063 6.035 7.062 6.778 0 .6-4.278 5.363-4.816 5.363-.194 0-1.353-.978-2.575-2.173-4.186-4.095-7.96-6.219-13.483-7.587-2.557-.634-7.524-.792-10.338-.328-4.14.681-8.39 2.402-11.604 4.698-1.954 1.396-4.476 3.807-4.476 4.279 0 .21.545.9 1.212 1.531 1.043.988 1.275 1.115 1.658.91.244-.132.445-.323.445-.427 0-.103.917-.95 2.038-1.88 7.57-6.284 18.436-7.186 26.882-2.23 3.29 1.93 7.05 5.605 6.755 6.603-.23.776-4.544 5.011-5.106 5.011-.44 0-2.055-1.423-2.06-1.815 0-.086-.673-.7-1.493-1.362-5.004-4.044-11.097-4.76-16.844-1.981-1.792.867-2.389 1.309-4.163 3.085-2.03 2.032-2.56 2.342-3.092 1.808z"/></g></svg>