<?xml version="1.0" standalone="no"?>
<!DOCTYPE svg PUBLIC "-//W3C//DTD SVG 20010904//EN"
 "http://www.w3.org/TR/2001/REC-SVG-20010904/DTD/svg10.dtd">
<svg version="1.0" xmlns="http://www.w3.org/2000/svg"
 width="700.000000pt" height="700.000000pt" viewBox="0 0 700.000000 700.000000"
 preserveAspectRatio="xMidYMid meet">
<metadata>
Created by potrace 1.14, written by Peter Selinger 2001-2017
</metadata>
<g transform="translate(0.000000,700.000000) scale(0.100000,-0.100000)"
fill="#000000" stroke="none">
<path d="M3260 4990 c-748 -50 -1448 -299 -2058 -733 -258 -183 -587 -489
-688 -638 -51 -76 -41 -141 26 -169 25 -10 36 -9 73 9 52 25 137 95 272 222
288 271 515 442 800 604 351 200 775 351 1197 428 116 21 150 22 593 22 520 0
618 -8 857 -66 679 -166 1326 -528 1802 -1008 l109 -110 -53 -63 c-88 -104
-193 -208 -211 -208 -24 0 -79 43 -229 180 -268 243 -475 387 -774 537 -305
153 -673 271 -961 309 -279 36 -827 33 -1062 -6 -548 -92 -1135 -358 -1548
-701 -223 -186 -485 -474 -485 -534 0 -38 56 -107 217 -266 166 -164 309 -291
354 -315 25 -12 30 -11 68 16 23 17 110 96 194 177 176 169 309 278 457 375
279 182 570 293 930 354 129 21 499 30 627 15 461 -57 881 -234 1249 -528 150
-120 235 -203 256 -250 17 -39 17 -45 3 -79 -9 -21 -65 -87 -127 -150 l-111
-113 -90 82 c-404 372 -735 538 -1187 598 -126 16 -422 17 -535 1 -361 -52
-688 -196 -964 -426 -91 -76 -285 -275 -324 -333 -61 -89 -66 -146 -16 -192
58 -54 114 -20 375 231 194 185 262 234 437 318 668 319 1348 227 1930 -260
58 -49 111 -103 131 -135 35 -53 131 -142 187 -171 29 -14 33 -14 72 10 91 53
402 355 498 481 44 59 48 88 19 144 -31 62 -133 182 -233 276 -433 409 -917
643 -1488 721 -171 24 -510 24 -679 1 -594 -82 -1134 -348 -1543 -759 -104
-104 -119 -108 -194 -50 -69 55 -192 190 -199 219 -10 38 10 64 161 211 217
212 431 366 700 502 321 162 719 284 1047 319 124 14 538 14 688 1 434 -39
903 -198 1277 -434 192 -120 329 -233 668 -547 147 -136 185 -164 218 -155 29
7 262 242 377 381 104 125 150 191 150 216 0 67 -398 465 -677 676 -449 341
-1088 612 -1676 713 -271 46 -652 67 -907 50z"/>
</g>
</svg>
