<svg xmlns="http://www.w3.org/2000/svg" xmlns:xlink="http://www.w3.org/1999/xlink" width="70mm" height="70mm" viewBox="0 0 70 70"><defs><linearGradient gradientTransform="translate(4.31 13.57)" xlink:href="#a" id="b" x1="47.284" y1="3.19" x2="108.77" y2="64.676" gradientUnits="userSpaceOnUse"/><linearGradient id="a"><stop style="stop-color:#67bc45;stop-opacity:1" offset="0"/><stop style="stop-color:#096a09;stop-opacity:1" offset="1"/></linearGradient></defs><g transform="translate(-28.5 -29.167)"><rect style="opacity:1;fill:url(#b);fill-opacity:1;stroke:none;stroke-width:1;stroke-linecap:round;stroke-linejoin:miter;stroke-miterlimit:4;stroke-dasharray:none;stroke-dashoffset:0;stroke-opacity:1;paint-order:stroke fill markers" width="70" height="70" x="28.5" y="29.167" rx="15" ry="15"/><path style="color:#000;font-style:normal;font-variant:normal;font-weight:400;font-stretch:normal;font-size:medium;line-height:normal;font-family:sans-serif;font-variant-ligatures:normal;font-variant-position:normal;font-variant-caps:normal;font-variant-numeric:normal;font-variant-alternates:normal;font-feature-settings:normal;text-indent:0;text-align:start;text-decoration:none;text-decoration-line:none;text-decoration-style:solid;text-decoration-color:#000;letter-spacing:normal;word-spacing:normal;text-transform:none;writing-mode:lr-tb;direction:ltr;text-orientation:mixed;dominant-baseline:auto;baseline-shift:baseline;text-anchor:start;white-space:normal;shape-padding:0;clip-rule:nonzero;display:inline;overflow:visible;visibility:visible;opacity:1;isolation:auto;mix-blend-mode:normal;color-interpolation:sRGB;color-interpolation-filters:linearRGB;solid-color:#000;solid-opacity:1;vector-effect:none;fill:#fff;fill-opacity:1;fill-rule:nonzero;stroke:none;stroke-width:6;stroke-linecap:round;stroke-linejoin:round;stroke-miterlimit:4;stroke-dasharray:none;stroke-dashoffset:0;stroke-opacity:1;paint-order:stroke fill markers;color-rendering:auto;image-rendering:auto;shape-rendering:auto;text-rendering:auto;enable-background:accumulate" d="M52.75 35.207a3 3 0 0 0-2.807 2.19L46.308 49.7a3 3 0 0 0 2.1 3.748l11.232 3.01a3 3 0 1 0 1.552-5.795l-5.125-1.373a16.834 16.834 0 0 1 14.238-.2c6.426 2.88 10.425 9.44 10.056 16.532-.37 7.092-5.026 13.192-11.715 15.38-6.688 2.188-13.996.012-18.43-5.5a3 3 0 1 0-4.675 3.76c5.976 7.43 15.926 10.4 24.97 7.442 9.044-2.959 15.344-11.232 15.84-20.77.497-9.538-4.908-18.427-13.593-22.32a22.806 22.806 0 0 0-10.15-1.983c-2.817.1-5.6.722-8.203 1.834l1.291-4.368a3 3 0 0 0-2.947-3.891Z"/></g></svg>