<?xml version="1.0" encoding="UTF-8" standalone="no"?>
<!-- Created with Inkscape (http://www.inkscape.org/) -->

<svg
   xmlns:dc="http://purl.org/dc/elements/1.1/"
   xmlns:cc="http://creativecommons.org/ns#"
   xmlns:rdf="http://www.w3.org/1999/02/22-rdf-syntax-ns#"
   xmlns:svg="http://www.w3.org/2000/svg"
   xmlns="http://www.w3.org/2000/svg"
   xmlns:sodipodi="http://sodipodi.sourceforge.net/DTD/sodipodi-0.dtd"
   xmlns:inkscape="http://www.inkscape.org/namespaces/inkscape"
   width="34"
   height="34"
   viewBox="0 0 8.9958335 8.9958335"
   version="1.1"
   id="svg1479"
   inkscape:version="0.92.4 (5da689c313, 2019-01-14)"
   sodipodi:docname="questionblanc.svg">
  <defs
     id="defs1473" />
  <sodipodi:namedview
     id="base"
     pagecolor="#ffffff"
     bordercolor="#666666"
     borderopacity="1.0"
     inkscape:pageopacity="0.0"
     inkscape:pageshadow="2"
     inkscape:zoom="1.979899"
     inkscape:cx="-110.79881"
     inkscape:cy="166.66231"
     inkscape:document-units="mm"
     inkscape:current-layer="layer1"
     showgrid="false"
     fit-margin-top="0"
     fit-margin-left="0"
     fit-margin-right="0"
     fit-margin-bottom="0"
     inkscape:window-width="1920"
     inkscape:window-height="1001"
     inkscape:window-x="-9"
     inkscape:window-y="-9"
     inkscape:window-maximized="1"
     units="px" />
  <metadata
     id="metadata1476">
    <rdf:RDF>
      <cc:Work
         rdf:about="">
        <dc:format>image/svg+xml</dc:format>
        <dc:type
           rdf:resource="http://purl.org/dc/dcmitype/StillImage" />
        <dc:title></dc:title>
      </cc:Work>
    </rdf:RDF>
  </metadata>
  <g
     inkscape:label="Calque 1"
     inkscape:groupmode="layer"
     id="layer1"
     transform="translate(-11.869116,-69.004167)">
    <g
       aria-label="?"
       style="font-style:normal;font-variant:normal;font-weight:normal;font-stretch:normal;font-size:63.04778671px;line-height:125%;font-family:'Bebas Neue';-inkscape-font-specification:'Bebas Neue';text-align:center;letter-spacing:1.18214595px;word-spacing:0px;text-anchor:middle;fill:#c5c7c5;fill-opacity:1;stroke:none;stroke-width:1.18214595px;stroke-linecap:butt;stroke-linejoin:miter;stroke-opacity:1"
       id="text840"
       transform="matrix(0.20096166,0,0,0.20096166,6.9481507,64.860732)">
      <path
         d="m 42.833991,51.070118 q 0,-2.332768 0.693525,-4.413345 0.756574,-2.143625 2.711055,-4.917727 2.269721,-3.215438 3.089342,-5.548206 0.819621,-2.332768 0.819621,-4.917727 0,-2.26972 -0.882669,-3.278485 -0.882669,-1.071812 -2.584959,-1.071812 -1.702291,0 -2.58496,1.071812 -0.882669,1.008765 -0.882669,3.278485 v 4.791632 h -6.556969 v -4.350297 q 0,-5.359062 2.584959,-8.196213 2.584959,-2.900198 7.565734,-2.900198 5.043823,0 7.628783,2.900198 2.648007,2.837151 2.648007,8.196213 0,2.900198 -1.071813,5.611253 -1.008764,2.648007 -3.530676,5.989539 -2.017529,2.711055 -2.83715,4.539441 -0.756574,1.765338 -0.756574,3.467628 v 2.395816 H 42.833991 Z M 42.518752,58.6989 h 6.683065 v 6.683066 h -6.683065 z"
         style="fill:#c5c7c5;fill-opacity:1;stroke-width:1.18214595px"
         id="path825"
         inkscape:connector-curvature="0" />
    </g>
  </g>
</svg>
