<svg viewBox="0 0 36 36" xmlns="http://www.w3.org/2000/svg" xml:space="preserve" fill="black"><path d="m21.7 13.35-1 1-2.05-2.05 1-1a.55.55 0 0 1 .77 0l1.28 1.28a.55.55 0 0 1 0 .77ZM12 18.94l6.06-6.06 2.05 2.05L14.06 21H12v-2.06Z" transform="matrix(3.01272 0 0 3.01272 -29.85 -33.569)"/><path d="M1070.63 1722.86h-12.18c-4.32 0-7.82 3.5-7.82 7.81v24.38c0 4.31 3.5 7.81 7.82 7.81h24.37c4.32 0 7.81-3.5 7.81-7.81v-12.19" style="fill:none;stroke:#000;stroke-width:2.36px" transform="matrix(.74242 0 0 .74242 -779.016 -1273.788)"/></svg>