<svg xmlns="http://www.w3.org/2000/svg" width="74" height="74" viewBox="0 0 19.579 19.579"><path style="fill:#c5c7c5;fill-opacity:1;stroke-width:.48947918" d="m131.46 144.04-3.264-3.262a.816.816 0 0 0-1.392.577v2.447h-3.264a.816.816 0 0 0 0 1.631h3.264v2.448a.816.816 0 0 0 1.392.576l3.264-3.263a.815.815 0 0 0 0-1.153zm-6.115-8.712a.332.332 0 0 0-.33.332v6.16h.662v-5.828h9.356v3.035a.332.332 0 0 0 .332.33h3.035v14.887h-12.723v-6.943h-.662v7.275a.332.332 0 0 0 .33.332h13.387a.332.332 0 0 0 .332-.332v-15.549a.332.332 0 0 0-.097-.236l-3.368-3.365a.332.332 0 0 0-.234-.098zm10.352 1.133 2.234 2.235h-2.234z" transform="translate(-121.115 -135.328)"/></svg>