<svg xmlns="http://www.w3.org/2000/svg" width="34" height="34" viewBox="0 0 8.996 8.996"><g style="font-style:normal;font-variant:normal;font-weight:400;font-stretch:normal;font-size:58.54123688px;line-height:125%;font-family:'Zagoth de Birse';-inkscape-font-specification:'Zagoth de Birse';text-align:center;letter-spacing:1.09764814px;word-spacing:0;text-anchor:middle;fill:#c5c7c5;fill-opacity:1;stroke:none;stroke-width:1.09764814px;stroke-linecap:butt;stroke-linejoin:miter;stroke-opacity:1"><path d="M63.5 85.242q-4.683 0-7.142-2.635-2.459-2.693-2.459-7.669V53.395q0-4.976 2.459-7.61 2.459-2.693 7.142-2.693t7.142 2.693q2.459 2.634 2.459 7.61v3.513h-6.089v-3.923q0-4.04-3.336-4.04-3.337 0-3.337 4.04v22.422q0 3.98 3.337 3.98 3.336 0 3.336-3.98v-8.02h-3.22v-5.855h9.309v13.406q0 4.976-2.459 7.67-2.459 2.634-7.142 2.634z" style="font-style:normal;font-variant:normal;font-weight:400;font-stretch:normal;font-family:'Bebas Neue';-inkscape-font-specification:'Bebas Neue';fill:#c5c7c5;fill-opacity:1;stroke-width:1.09764814px" transform="matrix(.21343 0 0 .21343 -9.055 -9.197)" aria-label="G"/></g></svg>