<svg viewBox="0 0 24 16" xmlns="http://www.w3.org/2000/svg" xml:space="preserve" style="fill-rule:evenodd;clip-rule:evenodd;stroke-linejoin:round;stroke-miterlimit:2"><path d="M3 6.532c0-.374.141-.732.392-.997.251-.264.591-.413.946-.413h15.324c.355 0 .695.149.946.413.251.265.392.623.392.997v.058c0 .374-.141.733-.392.997a1.306 1.306 0 0 1-.946.413H4.338c-.355 0-.695-.149-.946-.413A1.448 1.448 0 0 1 3 6.59v-.058Zm0 5c0-.374.141-.732.392-.997.251-.264.591-.413.946-.413h15.324c.355 0 .695.149.946.413.251.265.392.623.392.997v.058c0 .374-.141.733-.392.997a1.306 1.306 0 0 1-.946.413H4.338c-.355 0-.695-.149-.946-.413A1.448 1.448 0 0 1 3 11.59v-.058Zm0 5c0-.374.141-.732.392-.997.251-.264.591-.413.946-.413h15.324c.355 0 .695.149.946.413.251.265.392.623.392.997v.058c0 .374-.141.733-.392.997a1.306 1.306 0 0 1-.946.413H4.338c-.355 0-.695-.149-.946-.413A1.448 1.448 0 0 1 3 16.59v-.058Z" style="fill-rule:nonzero" transform="matrix(1.23913 0 0 1.17553 -3 -5.69)"/></svg>