<svg width="34" height="34" viewBox="0 0 34 34" fill="none" xmlns="http://www.w3.org/2000/svg">
<g clip-path="url(#clip0_210_67)">
<path d="M16.7578 16.378C19.0079 16.378 20.9562 15.571 22.5482 13.9788C24.1401 12.3868 24.9471 10.439 24.9471 8.18872C24.9471 5.93921 24.1401 3.99112 22.5479 2.39867C20.9557 0.806992 19.0076 0 16.7578 0C14.5076 0 12.5597 0.806992 10.9678 2.39893C9.37585 3.99086 8.5686 5.93895 8.5686 8.18872C8.5686 10.439 9.37585 12.3871 10.968 13.979C12.5602 15.5707 14.5083 16.378 16.7578 16.378V16.378Z" fill="black" fill-opacity="0.2"/>
<path d="M31.0867 26.1443C31.0408 25.4818 30.9479 24.7591 30.8112 23.996C30.6732 23.2271 30.4955 22.5003 30.2828 21.836C30.0631 21.1493 29.7643 20.4713 29.3949 19.8215C29.0115 19.147 28.5612 18.5598 28.0559 18.0765C27.5275 17.5709 26.8805 17.1644 26.1324 16.868C25.3869 16.573 24.5607 16.4236 23.6769 16.4236C23.3299 16.4236 22.9942 16.566 22.346 16.9881C21.947 17.2482 21.4803 17.5491 20.9595 17.8819C20.5141 18.1657 19.9107 18.4316 19.1655 18.6723C18.4384 18.9076 17.7001 19.0269 16.9715 19.0269C16.2428 19.0269 15.5048 18.9076 14.7769 18.6723C14.0325 18.4319 13.4291 18.166 12.9842 17.8822C12.4683 17.5525 12.0014 17.2516 11.5965 16.9878C10.949 16.5658 10.6131 16.4233 10.266 16.4233C9.38196 16.4233 8.55603 16.573 7.81078 16.8682C7.06319 17.1642 6.41599 17.5707 5.88707 18.0768C5.38202 18.5603 4.93144 19.1473 4.54857 19.8215C4.17944 20.4713 3.88062 21.1491 3.66064 21.8362C3.4482 22.5005 3.27051 23.2271 3.13251 23.996C2.9958 24.7581 2.90294 25.481 2.85703 26.1451C2.81189 26.7957 2.78906 27.4709 2.78906 28.1529C2.78906 29.9277 3.35326 31.3645 4.46582 32.4241C5.56464 33.4698 7.01857 34.0002 8.78664 34.0002H25.1579C26.9259 34.0002 28.3793 33.47 29.4784 32.4241C30.5912 31.3653 31.1554 29.9282 31.1554 28.1526C31.1552 27.4675 31.1321 26.7918 31.0867 26.1443V26.1443Z" fill="black" fill-opacity="0.2"/>
</g>
<defs>
<clipPath id="clip0_210_67">
<rect width="34" height="34.0001" fill="white"/>
</clipPath>
</defs>
</svg>
