<?xml version="1.0" encoding="UTF-8" standalone="no"?>
<!-- Created with Inkscape (http://www.inkscape.org/) -->

<svg
   xmlns:dc="http://purl.org/dc/elements/1.1/"
   xmlns:cc="http://creativecommons.org/ns#"
   xmlns:rdf="http://www.w3.org/1999/02/22-rdf-syntax-ns#"
   xmlns:svg="http://www.w3.org/2000/svg"
   xmlns="http://www.w3.org/2000/svg"
   xmlns:sodipodi="http://sodipodi.sourceforge.net/DTD/sodipodi-0.dtd"
   xmlns:inkscape="http://www.inkscape.org/namespaces/inkscape"
   width="141mm"
   height="141mm"
   viewBox="0 0 141 141"
   version="1.1"
   id="svg8"
   inkscape:version="0.92.4 (5da689c313, 2019-01-14)"
   sodipodi:docname="faviconamnet2021.svg"
   inkscape:export-filename="C:\Users\yanni\Desktop\AM\AMNet\faviconamnet2021.png"
   inkscape:export-xdpi="25.4"
   inkscape:export-ydpi="25.4">
  <defs
     id="defs2" />
  <sodipodi:namedview
     id="base"
     pagecolor="#ffffff"
     bordercolor="#666666"
     borderopacity="1.0"
     inkscape:pageopacity="0.0"
     inkscape:pageshadow="2"
     inkscape:zoom="0.49497476"
     inkscape:cx="633.39334"
     inkscape:cy="-228.07888"
     inkscape:document-units="mm"
     inkscape:current-layer="g838"
     showgrid="false"
     inkscape:window-width="1920"
     inkscape:window-height="1001"
     inkscape:window-x="-9"
     inkscape:window-y="-9"
     inkscape:window-maximized="1"
     fit-margin-top="0"
     fit-margin-left="0"
     fit-margin-right="0"
     fit-margin-bottom="0"
     inkscape:snap-bbox="true" />
  <metadata
     id="metadata5">
    <rdf:RDF>
      <cc:Work
         rdf:about="">
        <dc:format>image/svg+xml</dc:format>
        <dc:type
           rdf:resource="http://purl.org/dc/dcmitype/StillImage" />
        <dc:title></dc:title>
      </cc:Work>
    </rdf:RDF>
  </metadata>
  <g
     inkscape:label="Calque 1"
     inkscape:groupmode="layer"
     id="layer1"
     transform="translate(-7.5703933e-6,-13.099744)">
    <g
       id="g838"
       transform="matrix(2.2560442,0,0,2.2560442,772.80124,-40.121376)"
       inkscape:export-xdpi="2.7408557"
       inkscape:export-ydpi="2.7408557">
      <circle
         style="opacity:1;fill:#ffffff;fill-opacity:1;stroke:#ffffff;stroke-width:0.49264741;stroke-linecap:round;stroke-linejoin:miter;stroke-miterlimit:4;stroke-dasharray:none;stroke-dashoffset:0;stroke-opacity:1;paint-order:stroke fill markers"
         id="path815"
         cx="-311.29764"
         cy="54.839848"
         r="31.003063" />
      <path
         style="fill:#68bc48;stroke-width:0.22111174"
         d="m -325.41819,67.904845 c -0.57967,-0.580319 -0.26422,-1.282846 1.33699,-2.977496 3.72302,-3.940293 8.3522,-5.821422 13.63596,-5.541151 4.63041,0.245614 8.10806,1.78523 11.78603,5.217908 l 1.05794,0.987368 1.00323,-0.978225 c 1.8161,-1.770863 1.79257,-1.917846 -0.63667,-3.977691 -4.32415,-3.666554 -9.69512,-5.524193 -15.07881,-5.215239 -5.67709,0.32579 -10.44474,2.51638 -14.51477,6.669105 -1.01114,1.031684 -2.00534,1.876164 -2.20933,1.87662 -0.20399,4.42e-4 -1.47191,-1.055385 -2.81762,-2.346316 -1.78496,-1.712322 -2.44671,-2.490849 -2.44671,-2.87847 0,-0.712456 2.84644,-3.683444 5.30232,-5.534317 3.6291,-2.735068 8.51899,-4.805323 13.04517,-5.522995 2.7573,-0.437198 8.26686,-0.321675 10.7126,0.224616 5.39803,1.205731 10.27737,3.75469 13.99625,7.311618 0.95871,0.91696 1.88464,1.667199 2.05765,1.667199 0.17299,0 0.78855,-0.564413 1.36792,-1.254252 l 1.05337,-1.254253 -1.28199,-1.308345 c -3.14222,-3.206838 -8.124,-6.260159 -12.7015,-7.78471 -4.02843,-1.341679 -5.51849,-1.561879 -10.56891,-1.561879 -3.93558,0 -4.83141,0.06749 -6.82426,0.514188 -6.37718,1.429428 -11.61187,4.24333 -16.3507,8.789288 -2.39984,2.302177 -3.01392,2.6439 -3.56237,1.982346 -0.50404,-0.608005 -0.022,-1.365934 2.28164,-3.587154 4.69017,-4.522441 10.41302,-7.618745 16.71938,-9.045879 9.49107,-2.147837 19.37146,-0.272436 27.63578,5.24556 2.54696,1.700582 7.06279,6.035023 7.06187,6.778189 0,0.599419 -4.27858,5.362947 -4.8161,5.362947 -0.19392,0 -1.35271,-0.97819 -2.57509,-2.173753 -4.18651,-4.094706 -7.96021,-6.218263 -13.48262,-7.587007 -2.5577,-0.633933 -7.52463,-0.79156 -10.33866,-0.3281 -4.13912,0.681693 -8.38952,2.402891 -11.60334,4.698763 -1.9541,1.395966 -4.47654,3.806887 -4.47654,4.278631 0,0.21097 0.5455,0.900072 1.21224,1.531339 1.04299,0.987511 1.2744,1.114459 1.65742,0.909244 0.24484,-0.131183 0.44517,-0.323021 0.44517,-0.426308 0,-0.103289 0.91739,-0.949353 2.03866,-1.880147 7.57023,-6.284303 18.43561,-7.185778 26.88151,-2.23029 3.29022,1.930486 7.05033,5.605545 6.75553,6.602733 -0.22961,0.776638 -4.54442,5.011796 -5.10607,5.011796 -0.43986,0 -2.05529,-1.423749 -2.06008,-1.815647 0,-0.08601 -0.67318,-0.698859 -1.4936,-1.361874 -5.00353,-4.043551 -11.09705,-4.76025 -16.84341,-1.98106 -1.7927,0.867026 -2.38897,1.308897 -4.16338,3.085269 -2.02997,2.032225 -2.559,2.341524 -3.0921,1.807831 z"
         id="path842"
         inkscape:connector-curvature="0"
         sodipodi:nodetypes="ccsccccsccsscsscscccssscccsscsccscsscscscsccscc" />
    </g>
  </g>
</svg>
