<?xml version="1.0" encoding="UTF-8" standalone="no"?>
<!-- Created with Inkscape (http://www.inkscape.org/) -->

<svg
   xmlns:dc="http://purl.org/dc/elements/1.1/"
   xmlns:cc="http://creativecommons.org/ns#"
   xmlns:rdf="http://www.w3.org/1999/02/22-rdf-syntax-ns#"
   xmlns:svg="http://www.w3.org/2000/svg"
   xmlns="http://www.w3.org/2000/svg"
   xmlns:sodipodi="http://sodipodi.sourceforge.net/DTD/sodipodi-0.dtd"
   xmlns:inkscape="http://www.inkscape.org/namespaces/inkscape"
   width="479.5058mm"
   height="214.83414mm"
   viewBox="0 0 479.5058 214.83414"
   version="1.1"
   id="svg8"
   inkscape:version="0.92.4 (5da689c313, 2019-01-14)"
   sodipodi:docname="logoamnet2021.svg">
  <defs
     id="defs2" />
  <sodipodi:namedview
     id="base"
     pagecolor="#ffffff"
     bordercolor="#666666"
     borderopacity="1.0"
     inkscape:pageopacity="0.0"
     inkscape:pageshadow="2"
     inkscape:zoom="0.49497476"
     inkscape:cx="1078.8706"
     inkscape:cy="-4.2256276"
     inkscape:document-units="mm"
     inkscape:current-layer="g838"
     showgrid="false"
     inkscape:window-width="1920"
     inkscape:window-height="1001"
     inkscape:window-x="-9"
     inkscape:window-y="-9"
     inkscape:window-maximized="1"
     fit-margin-top="0"
     fit-margin-left="0"
     fit-margin-right="0"
     fit-margin-bottom="0" />
  <metadata
     id="metadata5">
    <rdf:RDF>
      <cc:Work
         rdf:about="">
        <dc:format>image/svg+xml</dc:format>
        <dc:type
           rdf:resource="http://purl.org/dc/dcmitype/StillImage" />
        <dc:title></dc:title>
      </cc:Work>
    </rdf:RDF>
  </metadata>
  <g
     inkscape:label="Calque 1"
     inkscape:groupmode="layer"
     id="layer1"
     transform="translate(-7.5703933e-6,-82.165868)">
    <g
       id="g838"
       transform="matrix(2.2560442,0,0,2.2560442,772.80124,-40.121376)"
       inkscape:export-xdpi="2.7408557"
       inkscape:export-ydpi="2.7408557">
      <path
         style="fill:#68bc48;stroke-width:0.26458335"
         d="m -310.76533,130.6274 c -0.10045,-0.26678 -1.46973,-3.46126 -3.04285,-7.09888 -1.57312,-3.6376 -2.85605,-6.85229 -2.85094,-7.14375 0.005,-0.29144 0.87111,-2.49444 1.92446,-4.89553 l 1.91519,-4.36563 h 2.60067 2.60067 l 1.95716,4.31964 c 1.07643,2.3758 1.95167,4.57846 1.94498,4.89479 -0.0171,0.80815 -6.13316,14.52986 -6.53614,14.66416 -0.18182,0.0606 -0.41276,-0.10805 -0.5132,-0.3748 z m -16.43349,-44.855666 c -0.69403,-0.694028 -0.31635,-1.53421 1.60073,-3.560913 4.45745,-4.712362 9.99982,-6.962082 16.32589,-6.626895 5.54385,0.293741 9.70752,2.135032 14.11103,6.240315 l 1.26664,1.180835 1.20113,-1.1699 c 2.17437,-2.117849 2.14619,-2.293633 -0.76226,-4.757087 -5.17716,-4.384987 -11.60766,-6.606614 -18.05337,-6.237124 -6.797,0.389626 -12.50514,3.009445 -17.37806,7.975863 -1.21061,1.233834 -2.40093,2.243783 -2.64516,2.244328 -0.24423,5.29e-4 -1.76228,-1.262179 -3.37344,-2.806057 -2.13708,-2.047838 -2.92938,-2.978912 -2.92938,-3.442484 0,-0.852056 3.40796,-4.405185 6.34831,-6.618721 4.345,-3.270983 10.1995,-5.746888 15.61856,-6.605181 3.30122,-0.522864 9.89764,-0.384706 12.82584,0.268627 6.46289,1.441984 12.30476,4.490392 16.75725,8.74427 1.14784,1.096632 2.25642,1.993874 2.46356,1.993874 0.20712,0 0.94411,-0.675005 1.63777,-1.500013 l 1.26116,-1.500013 -1.53487,-1.564706 c -3.76208,-3.835192 -9.72661,-7.486786 -15.20711,-9.310061 -4.8231,-1.604569 -6.6071,-1.867916 -12.65381,-1.867916 -4.71194,0 -5.78449,0.08072 -8.17046,0.614939 -7.63519,1.709513 -13.90252,5.074775 -19.57616,10.511478 -2.87325,2.75327 -3.60848,3.161951 -4.26511,2.37077 -0.60347,-0.727138 -0.0263,-1.633577 2.73174,-4.290028 5.61538,-5.408576 12.46716,-9.111576 20.01756,-10.818345 11.36335,-2.568689 23.19283,-0.325818 33.08742,6.273385 3.0494,2.033797 8.45606,7.217537 8.45495,8.10632 0,0.71687 -5.1226,6.413773 -5.76617,6.413773 -0.23217,0 -1.61954,-1.169858 -3.08306,-2.599682 -5.01237,-4.89703 -9.5305,-7.436681 -16.14231,-9.073619 -3.06224,-0.758147 -9.00898,-0.94666 -12.37814,-0.39239 -4.95563,0.815266 -10.0445,2.873719 -13.8923,5.619449 -2.33958,1.669494 -5.35962,4.552815 -5.35962,5.116994 0,0.252307 0.65312,1.076434 1.45138,1.831393 1.24874,1.181005 1.52579,1.332828 1.98437,1.087403 0.29315,-0.156887 0.533,-0.386315 0.533,-0.509841 0,-0.123526 1.09836,-1.13537 2.44081,-2.248546 9.06359,-7.515662 22.07236,-8.593773 32.18436,-2.667297 3.93928,2.308749 8.44114,6.703907 8.08818,7.896485 -0.2749,0.928815 -5.44089,5.993818 -6.11333,5.993818 -0.52663,0 -2.46073,-1.702721 -2.46647,-2.171409 0,-0.102867 -0.80597,-0.835795 -1.78824,-1.628722 -5.99056,-4.835853 -13.28613,-5.692982 -20.16606,-2.369233 -2.14634,1.036913 -2.86024,1.565365 -4.98468,3.689803 -2.43042,2.430423 -3.06381,2.800326 -3.70207,2.162061 z"
         id="path842"
         inkscape:connector-curvature="0"
         sodipodi:nodetypes="cccscccccccccsccccsccsscsscscccssscccsscsccscsscscscsccscc" />
      <path
         style="fill:#101010;stroke-width:0.26458335"
         d="m -336.02004,148.77346 c -0.5118,-0.51181 -0.64212,-0.85384 -0.52924,-1.38907 0.31602,-1.49833 13.41493,-31.15032 13.95953,-31.60016 0.3083,-0.25467 0.77229,-0.46302 1.03109,-0.46302 0.2588,0 0.72018,0.20835 1.0253,0.46302 0.31692,0.26453 2.57384,5.11291 5.26439,11.30916 2.83381,6.52614 4.86391,10.87485 5.09696,10.91827 0.2779,0.0517 1.72008,-3.01202 5.10552,-10.84614 2.59502,-6.00504 4.95969,-11.12663 5.25483,-11.38129 0.72197,-0.62297 1.37626,-0.5828 2.15572,0.13229 0.73946,0.67836 13.9327,30.83152 13.9327,31.84316 0,1.27029 -1.70112,2.11616 -2.73516,1.36004 -0.25027,-0.18299 -3.01932,-6.22541 -6.15347,-13.42761 -3.13415,-7.20217 -5.80445,-13.20281 -5.93405,-13.33473 -0.34946,-0.35579 -0.67222,0.31639 -5.6397,11.74567 -3.91632,9.01076 -4.64083,10.49544 -5.26836,10.79622 -0.59927,0.28723 -0.852,0.28784 -1.43294,0.004 -0.59831,-0.29278 -1.43146,-2.02088 -5.4901,-11.38737 -3.24526,-7.48935 -4.91246,-11.04308 -5.18164,-11.04496 -0.27179,-0.003 -2.18966,4.13325 -6.08542,13.1208 -3.42373,7.89863 -5.89632,13.27039 -6.21043,13.49235 -0.76885,0.54332 -1.40284,0.45249 -2.16553,-0.3102 z m 63.29629,-2.91137 c -0.22844,-0.22847 -0.48186,-0.68035 -0.56314,-1.00418 -0.0813,-0.32382 -0.10617,-9.75121 -0.0553,-20.94973 0.0909,-20.00705 0.45796,-21.58239 1.02935,-23.66228 2.06015,-7.499215 6.91583,-11.865203 14.17192,-14.289393 4.79528,-1.60206 10.39526,-1.38497 15.13647,0.58679 5.29497,2.20204 9.68208,6.59983 11.88968,11.91865 1.62968,3.926373 1.63116,3.950393 1.63116,26.464403 0,19.50016 -0.023,20.49619 -0.48385,20.91322 -0.63521,0.57486 -1.97024,0.55915 -2.50293,-0.0295 -0.37819,-0.41789 -0.43286,-2.65044 -0.5166,-21.10052 -0.10493,-23.11715 0.005,-21.75418 -2.09986,-26.057123 -0.89757,-1.83495 -1.54244,-2.68886 -3.50311,-4.63861 -2.72386,-2.7087 -4.85333,-3.97856 -8.22129,-4.90254 -2.78461,-0.76394 -7.55764,-0.64351 -10.18903,0.25709 -5.48822,1.87835 -10.28645,6.496105 -11.58787,10.907123 -1.30143,4.41101 -1.05722,15.51263 -1.11213,24.19953 -0.10874,17.2035 -0.1969,21.00561 -0.4954,21.3651 -0.46141,0.55563 -1.98112,0.5688 -2.52802,0.022 z m 69.03696,0.0361 c -5.34921,-1.064 -10.15187,-3.90917 -13.44377,-7.9643 -1.58453,-1.95191 -3.71885,-6.25272 -4.3284,-8.72202 -0.64743,-2.62273 -0.63888,-8.59094 0.0159,-11.1125 1.44867,-5.57877 4.9236,-10.40739 9.74796,-13.54537 9.08344,-5.908263 20.11625,-4.962083 27.89783,2.39255 4.3883,4.1475 6.74129,9.02766 7.37319,15.29217 0.15825,1.56896 0.11743,1.81801 -0.37967,2.31511 -0.55655,0.55655 -0.57309,0.557 -20.76524,0.557 -16.9636,0 -20.2574,0.0593 -20.51452,0.36907 -0.47668,0.57435 0.31062,3.82077 1.53805,6.34224 1.93317,3.97129 4.91024,6.95632 8.88992,8.91369 3.00196,1.47648 5.00438,1.93243 8.46666,1.92793 4.64365,-0.006 8.4105,-1.32849 11.95909,-4.19856 2.09931,-1.69789 2.74373,-1.93485 3.64905,-1.34165 1.56163,1.02322 0.98124,2.60731 -1.76966,4.83007 -2.09548,1.69318 -4.45453,2.886 -7.05364,3.56659 -2.66864,0.69879 -8.6606,0.89953 -11.28275,0.37798 z m 23.14109,-24.47978 c 0.97727,-0.61812 -1.21584,-6.48785 -3.56446,-9.54006 -2.23877,-2.90946 -5.30381,-5.08865 -9.12559,-6.48816 -2.64922,-0.97015 -7.14838,-1.20441 -10.1795,-0.53004 -3.86921,0.86082 -8.06928,3.4395 -10.635,6.52952 -2.51876,3.03342 -4.94475,9.6144 -3.7256,10.10634 0.61788,0.24932 36.83262,0.17383 37.23015,-0.0776 z m 28.53399,24.32029 c -8.0832,-1.98768 -14.33181,-8.20555 -16.68867,-16.6066 -0.55904,-1.99266 -0.57338,-2.47965 -0.66058,-22.42323 l -0.0891,-20.386303 0.56179,-0.7142 c 0.68432,-0.86998 1.87185,-0.95321 2.64004,-0.18503 0.50181,0.50182 0.52917,0.88194 0.52917,7.35541 0,4.95653 0.087,6.91322 0.3175,7.14375 0.23741,0.237403 3.27882,0.317493 12.05592,0.317493 7.7682,0 11.91583,0.0949 12.26288,0.28067 1.12478,0.60197 1.16018,2.52106 0.0564,3.05668 -0.2658,0.12899 -5.90063,0.29406 -12.52183,0.36682 l -12.03854,0.13229 v 11.37709 c 0,11.18939 0.0103,11.40981 0.61963,13.36146 1.09095,3.49387 2.29068,5.44187 5.0597,8.21539 2.0837,2.08708 2.91415,2.71753 4.77171,3.62262 1.23693,0.6027 3.02287,1.3008 3.96875,1.55136 2.30018,0.60933 6.94166,0.61828 9.26042,0.0177 2.39786,-0.6209 5.6973,-2.30707 7.32861,-3.74523 1.87653,-1.65431 2.62165,-2.01547 3.48277,-1.68807 0.86391,0.32845 1.08571,0.67683 1.09082,1.71333 0.003,0.64445 -0.26943,1.07863 -1.25272,1.99536 -2.70309,2.52005 -6.15659,4.35023 -9.90391,5.24859 -2.94598,0.70625 -7.96221,0.70279 -10.8507,-0.007 z m -169.22349,-32.946 c -0.39958,-0.27987 -0.58804,-0.68352 -0.58804,-1.25949 0,-1.0989 9.87546,-23.956013 10.62352,-24.588523 0.7403,-0.62596 1.45319,-0.58232 2.16108,0.13229 0.57205,0.57748 10.76331,23.657713 10.76331,24.375743 0,0.64614 -1.0791,1.75186 -1.70968,1.75186 -1.08815,0 -1.67407,-0.84998 -3.46537,-5.02708 -0.96727,-2.25558 -1.94775,-4.24987 -2.17884,-4.43178 -0.43083,-0.33911 -8.04938,-0.49514 -8.86653,-0.18158 -0.21378,0.082 -1.19349,2.01681 -2.17713,4.29948 -0.98363,2.28269 -2.02983,4.41822 -2.32489,4.74565 -0.62746,0.69627 -1.41326,0.7607 -2.23743,0.18343 z m 13.91097,-12.866493 c 0.14514,-0.75861 -2.39152,-6.32739 -2.84265,-6.24051 -0.39565,0.0762 -2.86618,5.23827 -2.90468,6.06923 -0.0297,0.640173 0.36014,0.722703 3.1515,0.667243 2.1201,-0.0421 2.52375,-0.11925 2.59583,-0.495963 z"
         id="path840"
         inkscape:connector-curvature="0"
         sodipodi:nodetypes="cccscccsccscccsccccccccccscsccsccsccsczcccccccccccssccccccccccccccccccccccscsccscscccccccccscccscssscccccccaccc" />
    </g>
  </g>
</svg>
