<?xml version="1.0" encoding="UTF-8" standalone="no"?>
<!-- Created with Inkscape (http://www.inkscape.org/) -->

<svg
   xmlns:dc="http://purl.org/dc/elements/1.1/"
   xmlns:cc="http://creativecommons.org/ns#"
   xmlns:rdf="http://www.w3.org/1999/02/22-rdf-syntax-ns#"
   xmlns:svg="http://www.w3.org/2000/svg"
   xmlns="http://www.w3.org/2000/svg"
   xmlns:sodipodi="http://sodipodi.sourceforge.net/DTD/sodipodi-0.dtd"
   xmlns:inkscape="http://www.inkscape.org/namespaces/inkscape"
   width="72mm"
   height="72mm"
   viewBox="0 0 72 72"
   version="1.1"
   id="svg821"
   inkscape:version="0.92.4 (5da689c313, 2019-01-14)"
   sodipodi:docname="test1.svg">
  <defs
     id="defs815">
    <inkscape:path-effect
       effect="bend_path"
       id="path-effect832"
       is_visible="true"
       bendpath="m 133.79194,150.08732 c 9.05148,3.60092 18.14792,4.01211 27.28216,0"
       prop_scale="1"
       scale_y_rel="false"
       vertical="false"
       bendpath-nodetypes="cc" />
  </defs>
  <sodipodi:namedview
     id="base"
     pagecolor="#ffffff"
     bordercolor="#666666"
     borderopacity="1.0"
     inkscape:pageopacity="0.0"
     inkscape:pageshadow="2"
     inkscape:zoom="1.979899"
     inkscape:cx="60.880292"
     inkscape:cy="175.46393"
     inkscape:document-units="mm"
     inkscape:current-layer="layer1"
     showgrid="false"
     fit-margin-top="0"
     fit-margin-left="0"
     fit-margin-right="0"
     fit-margin-bottom="0"
     inkscape:snap-global="false"
     inkscape:window-width="1920"
     inkscape:window-height="1001"
     inkscape:window-x="-9"
     inkscape:window-y="-9"
     inkscape:window-maximized="1"
     showguides="false" />
  <metadata
     id="metadata818">
    <rdf:RDF>
      <cc:Work
         rdf:about="">
        <dc:format>image/svg+xml</dc:format>
        <dc:type
           rdf:resource="http://purl.org/dc/dcmitype/StillImage" />
        <dc:title></dc:title>
      </cc:Work>
    </rdf:RDF>
  </metadata>
  <g
     inkscape:label="Calque 1"
     inkscape:groupmode="layer"
     id="layer1"
     transform="translate(-111.41072,-90.910713)">
    <g
       id="g1433"
       transform="matrix(0.86262152,0,0,0.86262152,20.251062,13.848109)">
      <path
         sodipodi:nodetypes="cccscccsccscccscccccccccssscccccccaccccsc"
         inkscape:connector-curvature="0"
         id="path840"
         d="m 131.24143,148.86422 c -0.31994,-0.31995 -0.40141,-0.53377 -0.33086,-0.86836 0.19752,-0.93667 8.38627,-19.47343 8.72673,-19.75466 0.19265,-0.15916 0.4828,-0.28943 0.64457,-0.28943 0.16183,0 0.45021,0.1303 0.64096,0.28943 0.19818,0.16538 1.60903,3.19632 3.29101,7.06987 1.77153,4.07978 3.04064,6.79834 3.18633,6.82548 0.17379,0.0324 1.07529,-1.88294 3.19167,-6.7804 1.62226,-3.754 3.10051,-6.95573 3.28502,-7.11495 0.45134,-0.38943 0.86038,-0.36432 1.34764,0.0826 0.46228,0.42406 8.70995,19.27413 8.70995,19.90655 0,0.79412 -1.06345,1.32291 -1.70987,0.85022 -0.15651,-0.11445 -1.88752,-3.89178 -3.84682,-8.39418 -1.95928,-4.50241 -3.62859,-8.25366 -3.70961,-8.33613 -0.21836,-0.22243 -0.42024,0.19774 -3.52564,7.34273 -2.44825,5.63302 -2.90118,6.56115 -3.29346,6.7492 -0.37464,0.17955 -0.53263,0.18 -0.89581,0.003 -0.37403,-0.18311 -0.89486,-1.26334 -3.4321,-7.11874 -2.02875,-4.68191 -3.07099,-6.9035 -3.23927,-6.90468 -0.17002,-0.003 -1.36885,2.58388 -3.80425,8.20237 -2.14032,4.93779 -3.68606,8.29592 -3.88243,8.43466 -0.48064,0.33965 -0.87697,0.28289 -1.35376,-0.19396 z m 9.24266,-22.49309 c -0.24981,-0.1749 -0.36761,-0.42727 -0.36761,-0.78734 0,-0.68698 6.17358,-14.97597 6.64122,-15.37137 0.4628,-0.39133 0.90846,-0.36404 1.35097,0.0826 0.35763,0.36103 6.72863,14.78948 6.72863,15.23835 0,0.40392 -0.67458,1.09516 -1.0688,1.09516 -0.68026,0 -1.04653,-0.53134 -2.16636,-3.14264 -0.60467,-1.41007 -1.21761,-2.65678 -1.36208,-2.7705 -0.26933,-0.21194 -5.03201,-0.30954 -5.54286,-0.11351 -0.13368,0.0515 -0.74609,1.2608 -1.36101,2.68777 -0.61491,1.42702 -1.26895,2.76205 -1.45338,2.96673 -0.39226,0.43528 -0.88349,0.47556 -1.39872,0.11458 z m 8.69635,-8.0434 c 0.0909,-0.47422 -1.49504,-3.95553 -1.77707,-3.90122 -0.24733,0.0477 -1.79176,3.27467 -1.81584,3.79415 -0.0177,0.4002 0.22513,0.45178 1.97014,0.41712 1.32537,-0.0264 1.57771,-0.0745 1.62277,-0.31005 z"
         style="fill:#101010;stroke-width:0.16540261" />
      <path
         sodipodi:nodetypes="cccscccccccccsccccsccsscsscscccssscccsscsccscsscscscsccscc"
         inkscape:connector-curvature="0"
         id="path842"
         d="m 147.11525,137.11092 c -0.0627,-0.1667 -0.91881,-2.1638 -1.90222,-4.43784 -0.98343,-2.27401 -1.78546,-4.28364 -1.78227,-4.46585 0.004,-0.18221 0.54457,-1.55938 1.20307,-3.06042 l 1.19728,-2.72913 h 1.62578 1.62579 l 1.2235,2.70039 c 0.67293,1.48522 1.2201,2.86218 1.21591,3.05995 -0.0108,0.5052 -3.83411,9.08325 -4.08603,9.1672 -0.11377,0.0379 -0.25804,-0.0676 -0.32081,-0.2343 z m -10.2733,-28.04124 c -0.43388,-0.43386 -0.19774,-0.95908 1.0007,-2.22607 2.78652,-2.94592 6.2513,-4.3523 10.20602,-4.14278 3.46569,0.18355 6.06858,1.33471 8.82142,3.90111 l 0.79181,0.73819 0.75089,-0.73135 c 1.35928,-1.32396 1.34168,-1.43387 -0.47651,-2.97386 -3.23648,-2.74125 -7.25648,-4.13011 -11.28595,-3.899121 -4.24911,0.243585 -7.81752,1.881341 -10.86379,4.986071 -0.75682,0.77133 -1.50094,1.40269 -1.6536,1.40303 -0.15275,2.8e-4 -1.10168,-0.78904 -2.10889,-1.75419 -1.33599,-1.28019 -1.83128,-1.86224 -1.83128,-2.15204 0,-0.53266 2.13045,-2.753884 3.9686,-4.137666 2.71624,-2.044824 6.37614,-3.59263 9.76384,-4.129171 2.06374,-0.326885 6.18745,-0.240524 8.018,0.167804 4.04024,0.901459 7.69225,2.807153 10.47567,5.466427 0.71758,0.685556 1.41061,1.246466 1.54008,1.246466 0.12949,0 0.59021,-0.42198 1.02385,-0.937745 l 0.78839,-0.937718 -0.95951,-0.978148 c -2.35181,-2.397552 -6.08051,-4.680354 -9.50662,-5.820148 -3.01513,-1.003092 -4.13037,-1.16771 -7.91044,-1.16771 -2.94563,0 -3.61614,0.05055 -5.1077,0.384413 -4.77311,1.068686 -8.69108,3.172496 -12.23793,6.571209 -1.79618,1.721176 -2.2558,1.976654 -2.66631,1.482074 -0.37726,-0.454569 -0.0156,-1.02122 1.70774,-2.68188 3.51043,-3.381158 7.79376,-5.696073 12.51384,-6.763052 7.10374,-1.605791 14.49886,-0.203723 20.6844,3.92178 1.90632,1.271416 5.28623,4.512009 5.28556,5.067634 0,0.448136 -3.20236,4.009521 -3.60469,4.009521 -0.1452,0 -1.01244,-0.73133 -1.92735,-1.62519 -3.13347,-3.061342 -5.95793,-4.648969 -10.09126,-5.672303 -1.91435,-0.473951 -5.6319,-0.591789 -7.73814,-0.245292 -3.09797,0.509655 -6.27923,1.796485 -8.68467,3.512948 -1.46255,1.04369 -3.35052,2.846177 -3.35052,3.198857 0,0.15784 0.40829,0.67293 0.90731,1.1449 0.78066,0.7383 0.95385,0.83319 1.24052,0.67978 0.18333,-0.0979 0.33321,-0.2415 0.33321,-0.31874 0,-0.0773 0.68663,-0.70976 1.52585,-1.40565 5.66605,-4.698369 13.7984,-5.372334 20.11985,-1.66743 2.4626,1.44329 5.27692,4.1909 5.05627,4.93642 -0.1718,0.58065 -3.40134,3.747 -3.82172,3.747 -0.32921,0 -1.53831,-1.06445 -1.54189,-1.35745 0,-0.0643 -0.50384,-0.52249 -1.11791,-1.01818 -3.74495,-3.02311 -8.30574,-3.55892 -12.60668,-1.48112 -1.34178,0.64823 -1.78806,0.9786 -3.11613,2.30667 -1.51938,1.51935 -1.91534,1.75061 -2.31433,1.35159 z"
         style="fill:#68bc48;stroke-width:0.16540261" />
    </g>
    <path
       style="fill:#101010;stroke:#00001c;stroke-width:0.44999999;stroke-miterlimit:4;stroke-dasharray:none;stroke-opacity:1"
       d="m 131.68656,155.45048 c -0.0318,-0.0597 -0.0527,-0.1607 -0.0466,-0.22458 0.007,-0.0659 0.66881,-1.72867 1.4722,-3.705 1.4332,-3.52623 1.6073,-3.78168 1.84826,-4.11123 0.87049,-1.19105 1.94442,-1.66726 3.2334,-1.74622 0.8529,-0.0523 1.73034,0.22866 2.41757,0.77189 0.76126,0.60157 1.35751,1.57284 1.57869,2.63052 0.16606,0.79406 0.17165,0.78191 -0.50143,5.0245 -0.58186,3.6676 -0.61677,3.8537 -0.73171,3.91614 -0.15949,0.0857 -0.45654,0.0333 -0.5561,-0.0973 -0.0698,-0.0923 -0.01,-0.51459 0.58663,-3.97735 0.75018,-4.35589 0.71868,-4.06298 0.49565,-4.95508 -0.0955,-0.38159 -0.17222,-0.5466 -0.43727,-0.9879 -0.36511,-0.60787 -0.65495,-0.91378 -1.17447,-1.22818 -0.4161,-0.25178 -1.21601,-0.45079 -1.68613,-0.41876 -0.98208,0.0671 -2.08913,0.61733 -2.5974,1.31411 -0.52254,0.71636 -1.22025,2.68136 -1.82263,4.23683 -1.1814,3.05423 -1.46015,3.72339 -1.54684,3.76294 -0.13553,0.0618 -0.45512,-0.061 -0.53165,-0.20348 -7e-5,-6e-4 -1.4e-4,-10e-4 -2.1e-4,-0.002 z m 15.17622,3.08988 c -1.21276,-0.22551 -2.24763,-0.83707 -2.89251,-1.67281 -0.31739,-0.41133 -0.67243,-1.25217 -0.74655,-1.74475 -0.0769,-0.5112 0.0631,-1.63859 0.24932,-2.09971 0.406,-1.01733 1.17023,-1.86366 2.08875,-2.39597 1.72688,-1.00082 3.60951,-0.85033 5.15989,0.40435 0.87824,0.71078 1.45239,1.56277 1.73175,2.72296 0.0699,0.29024 0.0682,0.33806 -0.0206,0.44437 0.0371,-0.0444 -0.23375,0.35073 -4.22841,0.40104 -3.47602,0.0438 -4.14866,-0.1613 -4.20692,-0.10872 -0.10847,0.0994 -0.01,0.72945 0.20634,1.23054 0.33987,0.78793 0.94244,1.40593 1.80622,1.81328 0.64175,0.30266 1.10903,0.40332 1.87098,0.39807 1.03374,-0.007 1.87631,-0.30016 2.61223,-0.8958 0.43695,-0.35368 0.5655,-0.41265 0.77403,-0.31752 0.35089,0.16 0.26819,0.47353 -0.31172,0.94494 -0.44,0.35766 -0.95754,0.61851 -1.54003,0.77277 -0.63193,0.16735 -1.92496,0.21944 -2.55052,0.10301 -7.6e-4,-2e-5 -0.002,-4e-5 -0.002,-5e-5 z m 4.74627,-4.84219 c 0.17849,-0.13388 -0.37396,-1.19609 -0.86733,-1.7311 -0.47258,-0.51238 -1.0702,-0.88416 -1.78247,-1.12526 -0.48465,-0.164 -1.32635,-0.20343 -1.87702,-0.0898 -0.70578,0.1457 -1.5261,0.59694 -2.0554,1.13931 -0.52223,0.53517 -1.12518,1.73746 -0.89542,1.8512 0.0863,0.0427 1.88123,0.21322 3.7597,0.20218 1.87182,-0.011 3.66138,-0.20422 3.71793,-0.24666 z m 6.86782,3.35826 c -1.91704,0.13472 -3.49802,-0.77162 -4.25965,-2.25315 -0.17792,-0.34614 -0.20049,-0.44639 -0.85261,-4.15607 -0.22264,-1.26575 -0.44461,-2.53161 -0.66591,-3.7976 0.0224,-0.0495 0.0446,-0.099 0.0666,-0.14847 0.0807,-0.18079 0.26432,-0.22968 0.41273,-0.11032 0.0971,0.0782 0.11533,0.1477 0.34775,1.34963 0.17801,0.92055 0.26356,1.28022 0.31174,1.31559 0.0273,0.0197 0.60861,-0.0217 2.09142,-0.4262 1.3263,-0.36181 2.01586,-0.61424 2.08569,-0.60119 0.22436,0.0401 0.35773,0.379 0.20234,0.543 -0.0399,0.0425 -0.98135,0.41571 -2.1408,0.74419 -0.69973,0.19828 -1.40757,0.37067 -2.12183,0.51767 l 0.41004,2.11194 c 0.40294,2.07532 0.41297,2.11957 0.6088,2.45535 0.34787,0.59659 0.683,0.92106 1.38272,1.29318 0.52364,0.2785 0.75372,0.35576 1.18664,0.41635 0.3027,0.0424 0.71078,0.0638 0.93615,0.051 0.54994,-0.0311 1.52027,-0.33178 1.99774,-0.61843 0.48547,-0.29337 1.0542,-0.83745 1.29667,-1.23308 0.27305,-0.44553 0.39164,-0.57072 0.59453,-0.58723 0.20098,-0.0164 0.27276,0.0243 0.35266,0.20499 0.0494,0.11146 0.027,0.21261 -0.10954,0.45776 -0.3774,0.67736 -0.98898,1.2869 -1.75213,1.73234 -0.61766,0.36063 -1.68596,0.69149 -2.3824,0.74106 2.1e-4,-7.8e-4 4.1e-4,-0.002 6.1e-4,-0.002 z"
       id="path840-6"
       inkscape:connector-curvature="0"
       sodipodi:nodetypes="ccscsccsccsccsczcccccccccccssccccccccccccccccccscccscsccscscccccccccscccs"
       inkscape:path-effect="#path-effect832"
       inkscape:original-d="m 133.91411,155.8488 c -0.0435,-0.0435 -0.0918,-0.12956 -0.1071,-0.191 -0.0148,-0.0614 -0.0198,-1.85575 -0.01,-3.98695 0.0173,-3.80755 0.0871,-4.10735 0.19593,-4.50317 0.39207,-1.42719 1.31617,-2.25809 2.69708,-2.71943 0.91259,-0.30489 1.97832,-0.26358 2.88062,0.11179 1.00769,0.41906 1.84259,1.25599 2.26272,2.26823 0.31015,0.74722 0.31044,0.75181 0.31044,5.03644 0,3.71109 -0.005,3.90066 -0.092,3.98002 -0.12092,0.10932 -0.37495,0.10636 -0.47632,-0.005 -0.0718,-0.0795 -0.0824,-0.50442 -0.0982,-4.01568 -0.0198,-4.39942 6.7e-4,-4.14002 -0.39962,-4.95893 -0.17077,-0.34918 -0.29353,-0.5117 -0.66668,-0.88277 -0.51839,-0.51549 -0.92364,-0.75716 -1.56458,-0.933 -0.52995,-0.14536 -1.43832,-0.12241 -1.93909,0.0489 -1.04447,0.35747 -1.95762,1.23628 -2.2053,2.07575 -0.24766,0.83945 -0.20113,2.95221 -0.21174,4.60541 -0.0198,3.274 -0.0375,3.99759 -0.0943,4.066 -0.0879,0.10585 -0.37704,0.10833 -0.48112,0.005 z m 13.13845,0.007 c -1.01801,-0.2026 -1.93201,-0.74397 -2.55848,-1.5157 -0.30156,-0.37147 -0.70775,-1.18996 -0.82373,-1.65989 -0.12314,-0.49912 -0.12166,-1.63494 0.005,-2.11481 0.27569,-1.06172 0.93699,-1.98065 1.85513,-2.57783 1.72867,-1.12442 3.82832,-0.94435 5.30926,0.45531 0.83512,0.78933 1.28292,1.71806 1.40317,2.91026 0.0301,0.2986 0.0222,0.34598 -0.0723,0.44059 -0.10587,0.10587 -0.10908,0.10611 -3.95184,0.10611 -3.22835,0 -3.8552,0.0123 -3.90413,0.0703 -0.0908,0.10932 0.059,0.72712 0.29272,1.20697 0.36788,0.75578 0.93445,1.32388 1.69182,1.69638 0.5713,0.281 0.95239,0.36777 1.6113,0.36691 0.88374,-7.9e-4 1.60061,-0.25283 2.27595,-0.79903 0.3995,-0.32312 0.52215,-0.36824 0.69444,-0.25533 0.29719,0.1947 0.18681,0.4962 -0.33676,0.91922 -0.39882,0.32221 -0.84777,0.54922 -1.3424,0.67875 -0.50788,0.133 -1.64822,0.17125 -2.14723,0.0718 z m 4.40399,-4.65876 c 0.18607,-0.11771 -0.23147,-1.23473 -0.67835,-1.81558 -0.42607,-0.55371 -1.00937,-0.96841 -1.73668,-1.23477 -0.50418,-0.18459 -1.36043,-0.22926 -1.93726,-0.10094 -0.73637,0.16386 -1.53569,0.65457 -2.02398,1.24263 -0.47933,0.5773 -0.94104,1.82974 -0.709,1.92334 0.11771,0.0474 7.00961,0.0331 7.08527,-0.0148 z m 5.43033,4.6284 c -1.53833,-0.37827 -2.72751,-1.56159 -3.17603,-3.16041 -0.10636,-0.37921 -0.10908,-0.4719 -0.12561,-4.26738 l -0.0173,-3.87973 0.10685,-0.13597 c 0.1303,-0.16558 0.35624,-0.18138 0.50243,-0.0353 0.0955,0.0955 0.10068,0.16781 0.10068,1.39982 0,0.94329 0.0173,1.31566 0.0605,1.35954 0.0452,0.0452 0.62399,0.0605 2.29436,0.0605 1.47836,0 2.26769,0.0173 2.33375,0.0533 0.21395,0.1145 0.22086,0.4798 0.01,0.58172 -0.0506,0.0247 -1.12297,0.056 -2.38306,0.0698 l -2.29106,0.0252 v 2.16518 c 0,2.12945 0.002,2.1714 0.11796,2.54284 0.20753,0.6649 0.43595,1.03563 0.96293,1.56345 0.39656,0.39721 0.5546,0.51719 0.9081,0.68943 0.23542,0.11475 0.57529,0.24757 0.75529,0.29524 0.43775,0.11599 1.32107,0.11771 1.76238,0.005 0.45632,-0.1182 1.08424,-0.43906 1.3947,-0.71275 0.35713,-0.31483 0.49893,-0.38356 0.66281,-0.32127 0.16435,0.0624 0.20654,0.12881 0.20753,0.32608 6.9e-4,0.12265 -0.0513,0.20531 -0.23838,0.37973 -0.51445,0.4796 -1.17167,0.8279 -1.88484,0.99886 -0.56065,0.13449 -1.51529,0.13376 -2.065,-7.8e-4 z"
       transform="matrix(1.2872897,0,0,1.2872897,-42.065241,-41.553297)" />
  </g>
</svg>
